<?xml version="1.0" encoding="iso-8859-1"?>
<!-- Generator: Adobe Illustrator 16.0.0, SVG Export Plug-In . SVG Version: 6.00 Build 0)  -->
<!DOCTYPE svg PUBLIC "-//W3C//DTD SVG 1.1//EN" "http://www.w3.org/Graphics/SVG/1.1/DTD/svg11.dtd">
<svg version="1.1" id="Capa_1" xmlns="http://www.w3.org/2000/svg" xmlns:xlink="http://www.w3.org/1999/xlink" x="0px" y="0px"
	 width="584.556px" height="584.556px" viewBox="0 0 584.556 584.556" style="enable-background:new 0 0 584.556 584.556;"
	 xml:space="preserve">
<g>
	<g>
		<path d="M577.199,197.095c-2.399-6.092-6.193-11.399-10.2-16.602c-3.28-4.264-5.965-9-8.78-13.607
			c-2.786-4.562-5.402-9.229-8.087-13.852c-2.477-4.259-4.896-8.556-7.438-12.779c-1.269-2.105-2.754-4.08-4.472-6.597
			c2.342-0.428,4.46-0.816,6.544-1.195c-1.012-3.129,2.8-3.941,2.885-6.81c-3.271-1.143-2.729-4.39-4.056-8.291
			c-1.562-1.661-1.754-2.615,0.013-4.056c-1.199-3.272-3.537-5.161-7.021-5.32c-2.199-0.102-3.529-1.048-4.599-2.905
			c-1.465-2.538-1.57-2.477-4.227-2.566c-1.559-1.685-2.975-3.219-4.398-4.741c-0.143-0.155-0.453-0.241-0.485-0.4
			c-0.469-2.313-1.958-3.064-4.251-2.46c0-2.317,0.102-4.337-0.05-6.34c-0.061-0.82-0.555-1.673-1.048-2.378
			c-0.604-0.865-1.403-1.591-2.171-2.428c-1.979,1.093-3.934,2.403-6.066,3.272c-1.474,0.6-3.183,0.632-4.799,0.849
			c-1.351,0.184-2.721,0.408-4.071,0.363c-1.433-0.049-2.853-0.396-4.28-0.616c-0.273-0.041-0.682-0.241-0.804-0.13
			c-2.354,2.231-5.924-0.359-8.372,2.211c-0.718,0.75-2.718,0.942-4.187-0.184c-0.652-0.498-1.836-0.4-2.782-0.4
			c-1.963,0.004-3.962-0.074-5.879,0.261c-1.478,0.261-2.975,0.906-4.248,1.722c-2.439,1.571-3.966,1.775-5.757,0.212
			c-0.718,1.322-1.497,2.615-3.301,1.367c-0.184-0.126-0.954,0.322-1.248,0.673c-1.518,1.828-3.402,1.987-5.676,2.236
			c-1.374,0.151-2.982-0.326-4.296,0.412c-0.759,0.429-1.53,0.963-2.057,1.64c-0.991,1.281-1.917,1.595-2.852,0.428
			c-0.979,0.233-1.787,0.412-2.587,0.616c-0.339,0.086-0.885,0.155-0.954,0.359c-0.715,2.113-2.587,2.737-4.374,3.382
			c-1.388,0.498-2.864,0.735-4.305,1.09c-0.384,0.094-1.02,0.094-1.102,0.306c-1.138,2.856-3.46,1.979-5.675,2.354
			c-1.657,0.281-3.941,0.188-5.472,2.15c-0.759,0.971-3.02,0.992-4.614,1.041c-4.296,0.13-8.597,0.045-12.819,0.045
			c-0.159,0.2-0.331,0.347-0.302,0.396c1.579,3.264-1.285,5.573-1.779,8.385c-0.298,1.689-1.42,2.644-2.685,3.655
			c-0.955,0.763-1.461,2.057-2.354,2.917c-2.211,2.125-4.006,4.692-7.604,5.087c-1.571,0.176-2.905,0.457-4.554,0.119
			c-1.269-0.261-2.774,0.955-4.219,1.11c-1.579,0.167-2.974,0.253-3.872,1.84c-0.195,0.347-1.089,0.367-1.673,0.416
			c-2.354,0.196-4.744,0.273-6.128,2.677c-2.089-1.562-2.726-1.179-4.112,1.24c-0.6,1.044-2.228,1.501-3.383,2.232
			c-0.481,0.306-1.248,0.551-1.375,0.975c-0.493,1.665-1.574,1.656-2.565,1.758c-1.706,1.159-3.411,2.313-5.206,3.533
			c0.407,0.682,1.664,1.709,0.42,3.415c-0.539,0.739,3.64,7.43,4.614,7.83c0.47,0.192,0.89,0.498,1.681,0.951
			c-0.791,0.265-1.167,0.51-1.529,0.498c-4.211-0.118-8.417-0.351-12.628-0.4c-5.271-0.057-10.543,0.078-15.814,0.037
			c-2.537-0.021-5.075-0.306-7.617-0.363c-1.636-0.037-3.28,0.123-4.92,0.192c-0.927,0.041-1.856,0.085-2.783,0.126
			c-0.975,0.041-2.685-1.31-2.387,1.265c0.009,0.085-1.102,0.433-1.693,0.44c-3.794,0.041-7.589,0.021-11.383,0.021
			c-21.666-0.004-43.326,0.045-64.987-0.082c-3.211-0.021-6.422-0.849-9.629-1.342c-8.09-1.24-16.177-2.517-24.268-3.741
			c-6.757-1.02-13.513-2.032-20.282-2.962c-3.011-0.412-6.059-0.559-9.078-0.926c-4.875-0.596-9.735-1.273-14.602-1.914
			c-3.848-0.506-7.687-1.359-11.539-1.437c-6.128-0.122-12.064-1.305-18.038-2.391c-1.808-0.331-3.644-0.567-5.475-0.677
			c-3.554-0.216-7.124-0.216-10.673-0.49c-2.109-0.163-4.194-0.681-6.018-0.996c-0.649,0.555-1.342,1.579-2.265,1.873
			c-4.153,1.31-8.355,2.489-12.579,3.554c-2.803,0.71-5.781,0.84-8.482,1.791c-3.203,1.13-6.144,2.982-9.29,4.3
			c-4.716,1.971-9.596,3.562-14.239,5.684c-2.468,1.13-4.671,2.925-6.838,4.618c-3.676,2.873-7.389,5.732-10.792,8.911
			c-4.035,3.766-7.797,7.83-11.587,11.853c-0.681,0.722-0.759,1.987-1.387,2.783c-0.767,0.971-1.706,1.934-2.782,2.497
			c-1.849,0.971-2.917,3.472-2.652,5.549c0.159,1.244-0.542,2.644-1.02,3.913c-1.224,3.239-2.607,6.422-3.794,9.669
			c-1.44,3.999-2.823,7.997-4.121,12.02c-1.094,3.39-1.563,7.066-3.146,10.191c-1.624,3.203-1.102,6.512-1.636,9.739
			c-0.261,1.579,0.261,3.554,1.073,4.981c1.297,2.281,0.327,4.378,0.086,6.516c-0.221,1.979-1.167,3.896-1.249,5.863
			c-0.155,3.831-0.318,7.593-2.215,11.073c-0.237,0.433,0.028,1.175,0.139,1.758c0.208,1.09,0.922,2.313,0.624,3.224
			c-1.122,3.432-2.579,6.757-3.876,10.135c-0.196,0.51-0.355,1.098-0.306,1.628c0.282,3.248,0.841,6.483,0.894,9.73
			c0.078,4.595-0.265,9.188-0.31,13.787c-0.024,2.831,0.102,5.671,0.298,8.498c0.176,2.538,0.555,5.06,0.808,7.589
			c0.2,2.028,0.624,3.868,1.652,5.765c1.098,2.024,1.199,4.57,1.807,6.871c0.661,2.505,0.078,5.32,1.963,7.54
			c0.298,0.351,0.184,1.102,0.171,1.66c-0.029,1.424,0.171,2.317,2.011,2.587c1.412,0.204,2.664,1.424,4.015,2.143
			c0.404,0.216,0.996,0.48,1.338,0.338c1.999-0.832,4.133-1.02,5.671-3.207c1.673-2.387,1.404-4.916,2.089-7.36
			c1.346-4.81,0.477-9.616,0.816-14.402c0.024-0.351,0.008-0.909,0.204-1.008c3.651-1.909,2.264-5.083,1.885-7.87
			c-0.547-4.026-1.252-8.041-2.125-12.007c-0.743-3.379-1.906-6.663-2.717-10.033c-0.526-2.183-1.028-4.431-1.065-6.658
			c-0.069-3.844-0.355-7.842,0.551-11.502c0.743-3.003,0.212-5.418-0.502-8.14c-0.257-0.979,0.384-2.518,1.114-3.361
			c1.469-1.689,3.289-3.081,5.263-4.864c1.082,3.158,2.105,5.81,2.893,8.527c1.175,4.06,2.187,8.164,3.248,12.257
			c0.159,0.612,0.175,1.257,0.286,1.881c0.383,2.162-0.975,4.483,1.514,6.523c1.211,0.996,1.224,3.66,1.448,5.61
			c0.339,2.938,0.371,5.912,0.567,8.87c0.049,0.767,0.184,1.53,0.347,2.28c1.269,5.929,0.245,11.771-0.331,17.679
			c-0.22,2.285,0.13,4.55-1.089,6.688c-1.004,1.758-1.914,3.586-2.721,5.442c-0.722,1.665-0.992,3.578-1.93,5.088
			c-1.636,2.64-3.317,5.414-5.589,7.45c-1.616,1.444-4.182,1.963-6.418,2.542c-1.775,0.457-2.913,1.109-3.26,3.039
			c-0.367,2.024-1.22,3.975-1.449,6.002c-0.281,2.505-0.114,5.055-0.188,7.585c-0.024,0.901-0.184,1.803-0.277,2.705
			c-0.718,7.181,0.734,14.234,1.273,21.342c0.334,4.391,0.71,8.785,0.853,13.183c0.359,10.976,0.779,21.959,0.824,32.938
			c0.033,7.837-0.359,15.688-0.865,23.509c-0.253,3.9,0.673,7.295,2.244,10.787c1.041,2.31,1.412,5.153-0.314,7.405
			c-1.758,2.293-1.188,4.986-1.828,7.454c-0.225,0.873-0.037,1.856-0.037,2.787c0.004,2.264,1.501,3.59,3.774,3.814
			c4.345,0.425,8.662,1.31,13.016,1.501c5.222,0.229,10.473,0.045,15.7-0.203c1.921-0.09,3.949-0.58,5.684-1.404
			c3.574-1.697,5.222-3.488,2.048-6.883c-4.337-4.643-8.788-9.184-13.215-13.745c-0.314-0.322-0.829-0.444-0.73-0.396
			c-0.371-1.763-0.449-3.244-0.996-4.521c-1.489-3.483-1.522-7.111-1.668-10.799c-0.155-3.877-0.906-7.728-1.175-11.604
			c-0.294-4.203-0.461-8.422-0.453-12.632c0.004-4.921,0.302-9.841,0.371-14.766c0.021-1.62-0.265-3.248-0.424-4.868
			c-0.021-0.203-0.061-0.493-0.196-0.579c-1.897-1.236-2.375-2.966-1.473-4.937c0.763-1.665,1.061-3.456,1.918-5.157
			c1.073-2.13,2.579-3.835,3.733-5.822c0.551-0.946,0.547-2.207,0.865-3.301c0.171-0.583,0.343-1.317,0.775-1.64
			c1.163-0.869,1.877-1.738,1.363-3.31c-0.13-0.396,0.339-1.02,0.596-1.509c1.498-2.885,2.979-5.773,4.533-8.63
			c2.448-4.504,4.945-8.979,7.426-13.464c2.097-3.79,4.186-7.58,6.324-11.347c0.437-0.771,1.159-1.379,1.62-2.142
			c0.514-0.853,0.824-1.832,1.33-2.693c2.309-3.94,4.586-7.91,7.038-11.762c0.596-0.935,1.824-1.469,2.758-2.188
			c0.188,0.147,0.375,0.298,0.563,0.445c-0.281,3.423-0.257,6.903-0.906,10.253c-1.146,5.928-1.211,12.085-3.786,17.731
			c-1.611,3.533-3.093,7.148-4.312,10.832c-0.857,2.587-1.179,5.354-1.73,8.038c-0.041,0.208-0.078,0.461,0.004,0.641
			c1.685,3.61,0.579,8.241,4.178,11.199c0.604,0.498,0.547,1.73,0.983,2.518c2.358,4.292,4.822,8.523,7.14,12.84
			c0.71,1.317,0.967,2.868,1.596,4.239c0.975,2.125,2.423,4.084,3.084,6.287c1.925,6.397,5.324,12.15,7.756,18.319
			c0.571,1.448,1.713,2.664,2.403,4.08c0.453,0.93,0.469,2.06,0.844,3.039c1.824,4.745,3.554,9.531,5.598,14.183
			c1.946,4.431,3.929,8.895,6.471,12.986c1.726,2.778,4.219,5.214,6.773,7.303c3.243,2.652,2.627,4.219,0.628,6.618
			c-0.771,0.926-1.509,1.894-2.17,2.905c-2.493,3.798-1.138,6.87,2.819,8.535c0.763,0.322,1.771,0.069,2.668,0.069
			c5.883,0,11.767,0,17.646,0c5.353,0,10.702,0,16.055,0c0.151-0.253,0.306-0.502,0.457-0.755c-2.007-3.647-3.607-7.609-6.12-10.869
			c-4.468-5.798-9.719-10.996-14.19-16.793c-2.366-3.068-3.855-6.83-5.598-10.352c-2.905-5.867-5.785-11.75-8.499-17.703
			c-1.91-4.189-3.448-8.547-5.3-12.766c-1.963-4.48-4.174-8.85-6.132-13.33c-1.893-4.333-2.395-8.882-1.795-13.59
			c0.225-1.771-0.147-3.636,0.188-5.378c0.934-4.826,1.97-9.641,3.215-14.395c0.755-2.888,2.542-5.598,2.84-8.49
			c0.383-3.725,2.403-6.821,3.019-10.399c0.2-1.159,1.346-2.143,1.607-3.305c0.71-3.183,1.122-6.431,1.75-9.633
			c0.873-4.468,1.681-8.956,2.807-13.362c1.102-4.309,2.497-8.552,3.9-12.778c1.085-3.272,2.333-6.492,3.615-9.69
			c0.465-1.159,1.334-2.15,1.836-3.301c0.339-0.779,0.343-1.697,0.514-2.55c0.078-0.396,0.102-0.841,0.306-1.171
			c1.432-2.351,2.979-4.631,4.316-7.03c0.424-0.759,0.09-1.934,0.494-2.717c0.849-1.648,1.861-3.235,2.987-4.713
			c0.624-0.819,5.643-0.689,6.683,0.033c2.864,1.982,5.467,4.655,8.625,5.813c3.815,1.399,6.887,3.203,9.009,6.643
			c0.33,0.53,0.836,1.13,1.391,1.313c2.061,0.678,2.419,2.146,2.167,4.015c-0.029,0.208-0.041,0.575,0.053,0.62
			c2.15,1,4.321,2.746,6.483,2.742c2.729-0.008,5.186-0.702,7.793,1.098c2.04,1.407,4.716,1.872,7.03,2.929
			c0.754,0.348,1.244,1.253,1.881,1.877c0.449,0.441,0.877,1.081,1.42,1.221c4.488,1.154,8.988,2.268,13.513,3.275
			c3.088,0.689,6.202,1.33,9.335,1.727c3.533,0.448,7.104,0.726,10.665,0.832c2.624,0.077,5.259-0.38,7.887-0.359
			c8.401,0.069,16.618-1.252,24.855-2.721c4.655-0.829,9.409-1.081,14.117-1.612c4.986-0.562,9.992-1.036,14.945-1.812
			c1.322-0.208,2.444-1.493,3.75-2.076c1.771-0.792,3.582-1.673,5.463-1.991c2.118-0.355,4.346,0.024,6.5-0.18
			c2.701-0.257,5.373-0.779,8.503-1.257c0.208,0.824,1.028,2.195,0.746,3.276c-1.224,4.676-0.869,9.865-4.537,13.803
			c-0.897,0.963-1.342,2.534-1.583,3.896c-1.089,6.165-3.802,11.75-5.989,17.532c-1.559,4.124-2.778,8.38-4.28,12.529
			c-0.836,2.313-1.905,4.541-2.917,6.785c-2.097,4.651-4.875,9.119-6.136,13.986c-1.008,3.884-2.211,8.017-1.293,12.329
			c0.481,2.265,0.016,4.615-1.293,6.851c-0.955,1.628-0.918,3.811-1.53,5.68c-0.874,2.677-1.722,5.394-2.95,7.915
			c-2.909,5.989-5.981,11.905-9.094,17.793c-1.799,3.398-3.954,6.618-5.655,10.057c-0.681,1.375-0.587,3.13-0.845,4.717
			c-0.673,4.174,1.306,6.993,4.133,9.923c2.293,2.374,4.912,5.112,4.578,9.069c-0.033,0.396,0.102,0.906,0.347,1.208
			c1.652,2.027,0.126,3.309-0.958,4.818c-2.326,3.239-4.529,6.569-6.957,10.11c12.354,8.576,25.704,8.201,39.838,7.051
			c-1.363-2.579-2.31-5.117-3.881-7.182c-3.161-4.153-6.663-8.05-10.024-12.056c-0.126-0.151-0.302-0.286-0.359-0.462
			c-1.097-3.275-2.26-6.535-3.239-9.849c-1.004-3.395-2.085-6.802-2.611-10.281c-0.29-1.914-0.016-4.284,0.914-5.937
			c2.207-3.93,2.321-8.34,3.554-12.477c1.179-3.945,1.644-8.148,3.203-11.918c0.93-2.252,1.11-4.651,2.13-6.772
			c0.514-1.069,1.947-1.677,2.558-2.729c2.424-4.142,6.479-7.026,8.467-11.555c1.896-4.329,4.264-8.458,6.557-12.604
			c2.77-5.01,5.765-9.894,8.486-14.929c1.016-1.881,1.448-4.067,2.305-6.046c0.526-1.221,0.331-3.396,3.113-2.665
			c-0.408,3.505-0.812,6.997-1.22,10.49c-0.073,0.628-0.318,1.285-0.208,1.881c0.571,3.133,1.244,6.25,1.852,9.38
			c0.147,0.763,0.258,1.546,0.258,2.317c0.016,14.635,0.045,29.266-0.024,43.9c-0.013,2.42-0.665,4.835-0.694,7.255
			c-0.024,1.836,0.082,3.859,0.82,5.483c1.681,3.688,3.733,7.213,5.745,10.738c1.023,1.795,2.309,3.439,3.423,5.189
			c1.008,1.588,0.612,3.048-0.408,4.525c-1.163,1.685-2.252,3.431-3.228,5.23c-0.253,0.465-0.036,1.24,0.099,1.844
			c0.424,1.926,0.763,3.827-0.82,6.133c3.276,0.714,6.349,1.366,9.412,2.056c2.877,0.649,5.729,1.408,8.621,1.983
			c2.281,0.452,4.599,0.935,6.908,0.975c3.696,0.062,7.4-0.204,11.102-0.392c1.391-0.069,3.644-2.228,4.826-4.627
			c-3.129-3.603-6.373-7.311-9.58-11.044c-3.235-3.766-6.85-7.295-9.534-11.424c-2.407-3.705-3.831-8.059-5.582-12.171
			c-2.432-5.712-2.566-11.767-2.587-17.858c-0.024-6.572-0.416-13.146-0.338-19.715c0.04-3.215,0.62-6.454,1.236-9.628
			c0.652-3.354,1.265-6.806,2.606-9.902c0.976-2.248,2.13-4.406,2.521-6.83c0.53-3.272,1.057-6.564,1.273-9.869
			c0.306-4.7,0.224-9.421,0.493-14.125c0.49-8.581,1.118-17.152,1.686-25.729c0.008-0.144,0.045-0.298,0.004-0.429
			c-1.656-5.468,1.967-9.021,4.627-12.95c0.583-0.86,0.905-1.897,1.366-2.848c1.175-2.42,3.872-1.922,5.749-2.999
			c1.999-1.146,3.97-2.338,5.953-3.513c0.42-0.249,0.815-0.718,1.248-0.751c4.818-0.343,7.576-4.015,10.95-6.695
			c1.494-1.187,2.313-3.153,4.726-3.316c0.86-0.058,1.705-1.571,2.395-2.534c0.824-1.146,1.375-2.488,2.211-3.623
			c2.889-3.904,3.142-8.572,3.771-13.093c0.408-2.941,0.277-5.957,0.534-8.927c0.049-0.555,0.689-1.212,1.229-1.551
			c3.374-2.138,7.389-3.153,10.224-6.315c1.159-1.294,3.261-1.686,4.713-2.778c4.794-3.611,9.441-7.417,14.239-11.021
			c1.967-1.473,4.251-2.521,6.263-3.937c1.975-1.387,4.61-2.644,5.455-4.602c0.955-2.211,2.513-3.525,4.035-4.929
			c3.162-2.917,6.267-5.781,7.805-9.963c0.481-1.31,1.489-1.812,3.056-1.616c2.24,0.277,3.448-1.616,4.868-2.934
			c0.42-0.392,0.62-1.008,0.995-1.465c1.392-1.701,2.823-3.37,4.215-5.067c1.154-1.412,2.48-2.407,4.186-3.284
			c2.102-1.077,4.338-2.138,5.582-4.835c1.407-3.056,5.088-3.068,8.066-3.382c3.435-0.367,6.69,0.351,9.122,3.195
			c0.339,0.4,0.947,0.587,1.449,0.828c4.933,2.379,9.416,5.855,15.161,6.271c2.542,2.346,6.585,2.113,8.719,5.447
			c0.963,1.505,3.228,2.163,4.876,3.244c1.456,0.955,2.966,1.86,4.296,2.974c1.856,1.551,3.603,2.991,6.165,3.513
			c1.615,0.331,2.97,1.897,4.468,2.868c2.366,1.534,4.826,2.941,7.099,4.602c0.804,0.587,1.322,1.709,1.718,2.689
			c1.53,3.762,2.326,8.09,7.059,9.375c3.342,0.906,6.643,0.877,10.024-0.293c3.003-1.037,4.537-3.129,5.785-5.798
			c0.694-1.485,1.95-2.122,3.767-2.57c2.272-0.563,4.487-2.138,6.263-3.774c3.676-3.387,6.557-7.381,7.923-12.354
			c1.004-3.66,0.604-7.254-0.433-10.706C581.646,209.539,579.614,203.235,577.199,197.095z"/>
	</g>
</g>
<g>
</g>
<g>
</g>
<g>
</g>
<g>
</g>
<g>
</g>
<g>
</g>
<g>
</g>
<g>
</g>
<g>
</g>
<g>
</g>
<g>
</g>
<g>
</g>
<g>
</g>
<g>
</g>
<g>
</g>
</svg>
